<svg xmlns="http://www.w3.org/2000/svg" viewBox="0 0 24 24" id="apple">
  <path fill="#212121" d="M15.712 3.884C17.163 2.148 17.029.567 16.987 0c-1.281.075-2.764.879-3.608 1.87-.93 1.061-1.477 2.374-1.36 3.852 1.386.108 2.651-.61 3.693-1.838z"></path>
  <path fill="#212121" d="M2 12.94c0 1.404.255 2.855.765 4.351C3.445 19.257 5.9 24.08 8.461 24c1.339-.032 2.285-.959 4.028-.959 1.69 0 2.567.959 4.059.959 2.582-.038 4.804-4.42 5.452-6.392-3.464-1.645-3.278-4.823-3.278-4.924h-.002c-.01-1.966.872-3.451 2.657-4.544-.999-1.441-2.507-2.235-4.5-2.39-1.886-.15-3.948 1.109-4.702 1.109-.797 0-2.626-1.055-4.059-1.055C5.15 5.85 2 8.187 2 12.94z"></path>
</svg>
